HIERARCHY
ROOT Hips
{
	OFFSET 0.000000 0.000000 0.000000
	CHANNELS 6 Xposition Yposition Zposition Xrotation Yrotation Zrotation
	JOINT LeftUpLeg
	{
		OFFSET 9.269806 0.000000 0.000000
		CHANNELS 3 Xrotation Yrotation Zrotation
		JOINT LeftLeg
		{
			OFFSET 0.000000 -39.892732 0.000000
			CHANNELS 3 Xrotation Yrotation Zrotation
			JOINT LeftFoot
			{
				OFFSET 0.000000 -39.163422 0.000000
				CHANNELS 3 Xrotation Yrotation Zrotation
				JOINT LeftToeBase
				{
					OFFSET 0.000000 -3.899992 14.555038
					CHANNELS 3 Xrotation Yrotation Zrotation
					End Site
					{
						OFFSET 0.000000 0.000000 7.499985
					}
				}
			}
		}
	}
	JOINT RightUpLeg
	{
		OFFSET -9.269806 0.000000 0.000000
		CHANNELS 3 Xrotation Yrotation Zrotation
		JOINT RightLeg
		{
			OFFSET 0.000000 -39.892732 0.000000
			CHANNELS 3 Xrotation Yrotation Zrotation
			JOINT RightFoot
			{
				OFFSET 0.000000 -39.163422 0.000000
				CHANNELS 3 Xrotation Yrotation Zrotation
				JOINT RightToeBase
				{
					OFFSET 0.000000 -3.899992 14.555038
					CHANNELS 3 Xrotation Yrotation Zrotation
					End Site
					{
						OFFSET 0.000000 0.000000 7.499985
					}
				}
			}
		}
	}
	JOINT Spine
	{
		OFFSET 0.000000 0.100000 0.000000
		CHANNELS 3 Xrotation Yrotation Zrotation
		JOINT Spine1
		{
			OFFSET 0.000000 26.030657 0.000000
			CHANNELS 3 Xrotation Yrotation Zrotation
			JOINT Neck
			{
				OFFSET 0.000000 19.880250 0.000000
				CHANNELS 3 Xrotation Yrotation Zrotation
				JOINT Head
				{
					OFFSET 0.000000 17.544161 0.000000
					CHANNELS 3 Xrotation Yrotation Zrotation
					End Site
					{
						OFFSET 0.000000 11.499977 0.000000
					}
				}
			}
			JOINT LeftShoulder
			{
				OFFSET 0.000000 19.880250 0.000000
				CHANNELS 3 Xrotation Yrotation Zrotation
				JOINT LeftArm
				{
					OFFSET 17.043857 -0.000051 0.000000
					CHANNELS 3 Xrotation Yrotation Zrotation
					JOINT LeftForeArm
					{
						OFFSET 27.798243 -0.000102 0.000000
						CHANNELS 3 Xrotation Yrotation Zrotation
						JOINT LeftHand
						{
							OFFSET 21.641054 -0.000076 0.000000
							CHANNELS 3 Xrotation Yrotation Zrotation
							End Site
							{
								OFFSET 9.999980 -0.000025 0.000000
							}
						}
					}
				}
			}
			JOINT RightShoulder
			{
				OFFSET 0.000000 19.880250 0.000000
				CHANNELS 3 Xrotation Yrotation Zrotation
				JOINT RightArm
				{
					OFFSET -17.043857 -0.000051 0.000000
					CHANNELS 3 Xrotation Yrotation Zrotation
					JOINT RightForeArm
					{
						OFFSET -27.798243 -0.000102 0.000000
						CHANNELS 3 Xrotation Yrotation Zrotation
						JOINT RightHand
						{
							OFFSET -21.641054 -0.000076 0.000000
							CHANNELS 3 Xrotation Yrotation Zrotation
							End Site
							{
								OFFSET -13.699973 -0.000051 0.000000
							}
						}
					}
				}
			}
		}
	}
}
MOTION
Frames: 18
Frame Time: 0.033333
-6.634480 64.071754 139.122404 3.204500 -9.221300 -1.223300 -49.499100 -5.362200 7.982700 81.069600 0.000000 0.000000 -35.583400 0.369000 -11.777400 -6.153200 0.000000 0.000000 -48.957400 -1.445000 2.789000 79.765900 0.000000 0.000000 -44.627100 -1.532900 -8.514400 8.263400 0.000000 0.000000 1.889000 2.139300 -1.285400 15.860100 -1.288600 -3.312700 1.830700 2.628900 -6.672800 2.574000 0.179400 5.250800 20.230900 8.884700 -4.424000 -38.043600 -46.712300 -76.141200 -0.000200 -37.603000 -0.000100 4.475100 -2.535300 5.252000 13.045200 -16.182900 1.517100 -8.320300 36.868000 73.827400 -0.000100 24.783500 0.000000 -21.167000 -1.315100 6.160500 
-6.802628 66.766948 140.142468 3.727900 -8.058300 -1.706700 -46.094800 -6.652400 7.087000 75.338900 0.000000 0.000000 -33.752700 1.202100 -11.599200 -7.150900 0.000000 0.000000 -45.119500 -2.218900 2.561200 73.692600 0.000000 0.000000 -42.789200 -1.653000 -8.726400 8.222800 0.000000 0.000000 2.074400 1.944300 -1.077100 15.445500 -1.308600 -2.676800 2.202800 2.521600 -6.509700 2.874900 -0.368400 5.625100 19.773800 8.508500 -4.175100 -36.971500 -48.325400 -74.862600 -0.000200 -37.353100 -0.000100 2.638100 -2.429700 -2.040700 12.927400 -16.425700 1.646200 -11.664100 37.174500 76.563800 -0.000100 32.043200 0.000000 -21.449700 0.558500 3.205100 
-6.926580 69.832982 140.935710 4.693600 -7.239500 -1.972800 -42.656000 -7.591900 6.448300 68.263500 0.000000 0.000000 -30.916900 2.064100 -10.600200 -7.906700 0.000000 0.000000 -41.346100 -2.840600 2.378600 66.218200 0.000000 0.000000 -39.970800 -1.415500 -8.492000 8.558200 0.000000 0.000000 1.970100 1.895100 -0.994700 15.004700 -1.195900 -2.090400 2.499700 2.170200 -6.249600 2.972400 -0.980800 6.029900 19.302600 8.143800 -3.549500 -35.953400 -49.085100 -74.093900 -0.000200 -36.984400 -0.000100 -1.837800 -2.299700 -7.773100 12.670700 -16.287400 1.542400 -14.531000 37.444200 78.301700 -0.000200 39.512400 0.000100 -22.652900 0.272100 2.218400 
-6.941566 72.883776 141.646402 5.705500 -6.961200 -1.910600 -38.881200 -7.716700 6.283600 60.182900 0.000000 0.000000 -27.449100 2.452200 -9.726300 -8.723500 0.000000 0.000000 -37.575300 -2.912200 2.277300 58.009600 0.000000 0.000000 -36.294700 -1.085000 -8.170900 9.075100 0.000000 0.000000 1.924200 2.139400 -1.016500 14.442700 -0.858600 -1.754800 2.451800 1.985600 -5.807700 3.439700 -1.350700 6.274800 18.846500 8.134300 -2.859100 -35.117600 -50.138100 -73.807600 -0.000200 -36.618700 -0.000100 -2.698400 -1.967500 -8.385500 12.050000 -16.219900 0.890800 -16.432700 37.458400 79.547000 -0.000200 47.729900 0.000100 -23.170600 -0.020100 2.926900 
-6.874764 75.703430 142.325852 6.517600 -7.020200 -1.502900 -34.664000 -7.215900 6.196200 51.515600 0.000000 0.000000 -23.958800 2.322400 -9.690700 -10.212800 0.000000 0.000000 -33.806400 -2.962600 1.722400 49.865700 0.000000 0.000000 -32.372700 -0.266100 -7.473900 9.706200 0.000000 0.000000 1.787300 2.362100 -1.069600 14.296100 -0.655900 -1.748200 2.412800 1.837400 -5.648700 3.467800 -1.690500 6.799700 18.406200 8.537800 -2.402400 -33.549900 -51.469500 -72.615100 -0.000200 -37.234600 -0.000100 -0.730000 -1.256800 -7.391500 11.610200 -15.910900 0.011500 -17.845600 37.959500 79.718600 -0.000300 56.289200 0.000200 -24.464300 -0.245300 3.760000 
-6.823202 78.048866 143.051022 7.089000 -6.526600 -1.251400 -30.691700 -6.824700 6.137800 43.451500 0.000000 0.000000 -20.414000 2.008600 -9.337600 -10.585600 0.000000 0.000000 -29.905700 -3.529200 1.155500 42.100000 0.000000 0.000000 -28.512600 0.693000 -8.187800 9.032100 0.000000 0.000000 1.667400 2.417200 -1.003400 14.129900 -0.577600 -1.609500 2.697200 1.644000 -5.465500 3.497300 -1.838600 7.285900 18.075500 8.705000 -1.886400 -32.188800 -51.477900 -71.870100 -0.000200 -38.125300 -0.000100 0.229900 -0.818700 -6.342200 11.232600 -15.931400 -0.332900 -18.563600 38.894100 78.663900 -0.000400 64.195100 0.000300 -24.483700 -0.569300 3.545200 
-6.715506 79.709772 143.787368 7.618600 -6.229300 -0.669400 -27.176400 -6.133100 5.846200 36.232200 0.000000 0.000000 -17.202300 1.349500 -9.224000 -11.084600 0.000000 0.000000 -26.745400 -3.901400 0.282500 35.673700 0.000000 0.000000 -25.635500 1.589300 -7.148400 9.738400 0.000000 0.000000 1.260700 2.362900 -1.045300 14.181500 -0.648800 -1.572500 3.029400 1.533800 -5.396100 3.688600 -2.026000 7.372200 18.291400 8.829300 -1.721800 -30.843600 -51.092200 -70.464100 -0.000200 -38.910300 -0.000100 -1.174000 -1.376400 -7.135300 11.081100 -16.145200 -0.679200 -20.191100 39.769200 77.865000 -0.000600 69.631600 0.000400 -26.204500 -0.158600 4.764100 
-6.621018 80.802734 144.429734 8.010500 -5.797200 -0.312700 -24.492100 -5.576500 5.755500 30.622400 0.000000 0.000000 -14.696400 0.579800 -9.636200 -11.030400 0.000000 0.000000 -24.291700 -4.194900 -0.216400 30.850600 0.000000 0.000000 -23.496400 1.949300 -7.105000 10.135700 0.000000 0.000000 1.078300 2.318900 -0.963500 13.909700 -0.659700 -1.424300 3.602600 1.342600 -5.272600 3.535900 -2.104700 7.219500 18.372700 8.785700 -1.673300 -29.441700 -50.258800 -69.215900 -0.000200 -39.438600 -0.000100 -3.420900 -2.045300 -7.548200 10.747500 -16.359500 -0.987600 -21.735600 39.628400 77.660900 -0.000700 72.733100 0.000500 -28.445700 0.184200 6.338700 
-6.580632 81.458308 144.836896 8.495300 -5.739600 0.179900 -23.045600 -4.670100 5.602300 27.016700 0.000000 0.000000 -12.929200 -0.372500 -9.807300 -11.058100 0.000000 0.000000 -22.890400 -3.958100 -0.575800 27.607600 0.000000 0.000000 -22.179100 1.864500 -7.369000 10.051600 0.000000 0.000000 0.992400 2.343100 -0.978800 13.583900 -0.654800 -1.478000 3.903500 1.205500 -5.104900 3.603500 -2.202700 7.128600 18.601000 8.964500 -1.815400 -28.501100 -49.800500 -68.089600 -0.000200 -38.923000 -0.000100 -5.220700 -2.936000 -7.307700 10.408000 -16.204400 -1.090100 -23.239100 38.713500 77.844400 -0.000700 73.684700 0.000500 -29.910700 -0.094000 6.171700 
-6.384290 81.739232 145.115534 8.856300 -5.337800 0.821900 -22.227700 -3.912800 4.855400 24.620800 0.000000 0.000000 -11.655100 -0.520500 -9.387800 -10.644500 0.000000 0.000000 -22.241000 -3.281200 -1.113800 25.934900 0.000000 0.000000 -21.670700 0.977700 -7.533800 10.297100 0.000000 0.000000 0.922800 2.442600 -0.941200 13.690700 -0.583600 -1.560800 3.979100 1.073000 -5.032700 3.658300 -2.484800 7.006900 18.968100 8.956200 -2.130600 -29.126500 -49.533500 -68.226100 -0.000200 -36.515100 -0.000100 -6.268300 -4.195900 -5.647000 10.403500 -16.162000 -1.130200 -24.666500 36.885000 78.296200 -0.000700 72.635800 0.000500 -30.422100 0.280700 5.739000 
-6.275324 81.875884 145.206974 9.284600 -5.429300 1.258300 -21.963900 -3.365600 4.385200 23.235700 0.000000 0.000000 -11.017800 -0.322100 -9.281200 -10.550000 0.000000 0.000000 -22.246400 -2.794900 -1.394800 25.165200 0.000000 0.000000 -21.432900 0.596200 -8.004000 10.233400 0.000000 0.000000 0.783400 2.585300 -0.853300 14.062200 -0.445200 -1.564800 4.032200 1.030200 -5.136200 3.688900 -2.668800 7.086000 19.128100 8.946800 -2.617200 -29.766200 -48.669100 -68.671700 -0.000100 -33.451900 0.000000 -6.315900 -4.603700 -4.388600 10.673800 -15.604600 -0.654600 -25.705900 35.319100 77.871700 -0.000600 69.656300 0.000400 -30.368400 0.964500 4.606300 
-6.106668 81.925922 145.260822 9.602400 -5.152700 1.657300 -21.759300 -3.065900 3.831300 22.100500 0.000000 0.000000 -10.710200 -0.216200 -9.093900 -10.162900 0.000000 0.000000 -22.389300 -3.229000 -2.012000 24.927400 0.000000 0.000000 -21.474400 0.911500 -8.190600 9.747200 0.000000 0.000000 0.741800 2.653800 -0.732200 14.307700 -0.374600 -1.555400 3.980700 1.193900 -4.995900 4.674200 -2.703400 6.867600 19.408500 9.059700 -2.857200 -30.624100 -47.724700 -70.225500 -0.000100 -29.502700 0.000000 -6.890100 -5.479600 -1.867500 10.864900 -15.587600 -0.259000 -25.880300 34.184800 77.512000 -0.000400 64.582700 0.000300 -29.966500 1.801600 3.592800 
-6.070600 81.874360 145.273776 9.822100 -4.805700 1.844700 -21.443500 -3.273000 3.582900 20.965500 0.000000 0.000000 -10.729500 -0.424100 -9.117500 -9.881600 0.000000 0.000000 -22.580100 -3.713200 -2.375900 24.910500 0.000000 0.000000 -21.824400 0.960500 -7.515600 10.031800 0.000000 0.000000 0.727800 2.675900 -0.601000 14.430400 -0.300100 -1.386300 4.213500 1.225000 -5.013100 5.756700 -2.706800 6.968500 19.619100 9.433000 -2.943500 -30.293400 -47.609100 -71.412900 -0.000100 -25.735700 0.000000 -7.218600 -5.332700 -0.317500 11.399900 -15.505100 0.169600 -24.919300 33.427500 76.486800 -0.000300 58.667000 0.000200 -29.693700 1.912300 2.648000 
-6.057900 81.848960 145.222722 10.143800 -4.323300 1.736600 -21.145700 -3.246300 3.620500 19.526300 0.000000 0.000000 -10.626000 -0.688000 -9.124100 -9.528100 0.000000 0.000000 -22.595900 -4.049800 -2.347500 24.349900 0.000000 0.000000 -21.852900 0.772600 -7.744300 10.130300 0.000000 0.000000 0.535100 2.659000 -0.459500 14.715700 -0.202800 -1.009500 4.210900 1.397400 -4.797300 7.364200 -2.811900 6.929100 19.410000 9.722200 -2.761500 -28.817900 -46.319800 -72.781000 -0.000100 -22.306200 0.000000 -7.464100 -5.595500 -0.216300 11.814500 -15.478900 0.849700 -22.723900 33.534000 74.524100 -0.000300 52.078100 0.000100 -28.852000 1.276900 2.475500 
-6.069838 81.932780 145.033238 10.572300 -3.977300 1.913500 -20.574800 -3.585500 3.363500 17.202600 0.000000 0.000000 -9.843400 -0.397000 -9.178100 -9.504100 0.000000 0.000000 -22.459600 -4.025000 -2.472700 23.057600 0.000000 0.000000 -21.634400 0.442100 -7.908700 10.265700 0.000000 0.000000 0.490000 2.610700 -0.548100 14.794900 -0.193300 -0.820200 4.311600 1.623600 -4.615200 8.957600 -2.832700 6.885800 19.826800 9.967100 -2.831700 -25.971900 -44.462100 -72.878400 -0.000100 -19.886500 0.000000 -10.310200 -5.715500 -2.287300 12.315000 -15.798700 1.325700 -20.075900 34.234700 72.995500 -0.000200 45.065400 0.000100 -28.047000 0.439000 2.477800 
-6.112002 82.084672 144.731232 11.165800 -3.536200 2.002000 -19.984000 -3.036100 3.372700 14.253400 0.000000 0.000000 -8.545500 -1.078100 -8.999900 -9.281000 0.000000 0.000000 -22.723000 -3.807600 -2.473800 22.092000 0.000000 0.000000 -21.030500 -0.165100 -7.828600 10.403300 0.000000 0.000000 0.452900 2.614000 -0.531900 14.885300 -0.155300 -0.720100 4.506800 1.824100 -4.547800 10.249600 -2.868600 7.169600 20.143300 10.054100 -3.137900 -21.792700 -42.607700 -71.848200 -0.000100 -18.306100 0.000000 -12.216700 -4.761000 -5.380400 12.637400 -16.226100 1.562700 -16.692200 34.700100 71.954700 -0.000200 38.634600 0.000100 -26.110200 -0.707300 2.265500 
-6.216142 82.135218 144.218914 11.797100 -3.310100 1.831200 -20.061200 -2.446600 3.813500 12.396200 0.000000 0.000000 -8.009000 -2.131800 -9.598000 -9.138300 0.000000 0.000000 -23.621700 -3.452200 -2.170600 22.001200 0.000000 0.000000 -20.478400 -0.578000 -8.214100 10.363000 0.000000 0.000000 0.772800 2.707300 -0.371300 14.962300 -0.027600 -0.644400 4.488300 1.982800 -4.339500 10.880900 -3.008300 7.205300 20.335800 10.515500 -3.157300 -18.025900 -41.036200 -71.385500 -0.000100 -16.686900 0.000000 -13.964000 -4.124100 -8.199700 13.016600 -16.694700 1.619800 -13.275300 35.087000 71.392000 -0.000100 33.191500 0.000000 -24.062000 -1.742100 2.100500 
-6.242558 81.886552 143.307308 12.705100 -2.766400 1.936100 -22.636900 -2.335600 3.678900 14.236300 0.000000 0.000000 -8.422900 -2.888000 -9.715500 -9.611000 0.000000 0.000000 -26.096500 -3.245700 -2.360200 24.029700 0.000000 0.000000 -21.205500 -0.917600 -8.274400 10.843800 0.000000 0.000000 1.323000 2.692000 -0.329800 15.089900 -0.037800 -0.617000 4.209200 2.020700 -4.211800 10.514400 -3.139400 7.146700 20.414000 10.828900 -2.830700 -14.880600 -40.212200 -71.430100 -0.000100 -14.941500 0.000000 -13.218200 -2.777600 -9.230700 13.296700 -17.054500 1.363900 -10.228900 35.317000 71.443000 -0.000100 28.447600 0.000000 -23.887900 -2.219800 2.807900 
